<svg xmlns="http://www.w3.org/2000/svg" xmlns:xlink="http://www.w3.org/1999/xlink" width="500" zoomAndPan="magnify" viewBox="0 0 375 374.999991" height="500" preserveAspectRatio="xMidYMid meet" version="1.0"><defs><clipPath id="id1"><path d="M 93.242188 48.515625 L 281.449219 48.515625 L 281.449219 326.765625 L 93.242188 326.765625 Z M 93.242188 48.515625 " clip-rule="nonzero"/></clipPath></defs><g clip-path="url(#id1)"><path fill="rgb(2.349854%, 7.839966%, 34.899902%)" d="M 245.929688 306.042969 C 247.398438 304.863281 248.832031 303.648438 250.230469 302.390625 C 251.375 301.351562 252.496094 300.292969 253.589844 299.207031 C 270.777344 282.097656 281.4375 258.402344 281.4375 232.257812 C 281.4375 181.945312 241.964844 140.695312 192.445312 138.015625 L 192.445312 102.285156 C 192.4375 72.699219 168.4375 48.632812 138.9375 48.632812 L 98.320312 48.632812 C 95.496094 48.632812 93.199219 50.933594 93.199219 53.765625 L 93.199219 321.496094 C 93.199219 324.335938 95.496094 326.628906 98.320312 326.628906 L 187.3125 326.628906 C 209.460938 326.636719 229.835938 318.921875 245.929688 306.042969 Z M 142.820312 182.5 L 103.445312 182.5 L 103.445312 58.90625 L 138.9375 58.90625 C 162.789062 58.90625 182.191406 78.363281 182.191406 102.285156 L 182.191406 143.007812 C 182.191406 145.847656 184.488281 148.144531 187.3125 148.144531 C 233.558594 148.144531 271.183594 185.875 271.183594 232.253906 C 271.183594 255.773438 261.5 277.050781 245.929688 292.332031 C 231.085938 280.449219 212.59375 272.964844 192.4375 271.871094 L 192.4375 232.253906 C 192.4375 204.820312 170.179688 182.5 142.820312 182.5 Z M 103.445312 316.363281 L 103.445312 192.773438 L 142.820312 192.773438 C 164.53125 192.773438 182.191406 210.488281 182.191406 232.257812 L 182.191406 276.878906 C 182.191406 279.714844 184.488281 282.011719 187.3125 282.011719 C 206.351562 282.011719 223.929688 288.417969 238.019531 299.1875 C 223.929688 309.949219 206.351562 316.363281 187.3125 316.363281 Z M 103.445312 316.363281 " fill-opacity="1" fill-rule="nonzero"/></g><path fill="rgb(26.269531%, 70.979309%, 93.728638%)" d="M 238.027344 299.1875 C 223.933594 288.425781 206.359375 282.011719 187.320312 282.011719 C 184.488281 282.011719 182.199219 279.710938 182.199219 276.878906 L 182.199219 232.257812 C 182.199219 210.488281 164.535156 192.773438 142.824219 192.773438 L 103.445312 192.773438 L 103.445312 316.367188 L 187.320312 316.367188 C 206.359375 316.363281 223.929688 309.957031 238.027344 299.1875 Z M 238.027344 299.1875 " fill-opacity="1" fill-rule="nonzero"/><path fill="rgb(92.158508%, 23.529053%, 49.798584%)" d="M 192.4375 232.257812 L 192.4375 271.878906 C 212.597656 272.972656 231.085938 280.449219 245.929688 292.335938 C 261.5 277.054688 271.183594 255.777344 271.183594 232.257812 C 271.183594 185.882812 233.558594 148.148438 187.3125 148.148438 C 184.480469 148.148438 182.191406 145.847656 182.191406 143.015625 L 182.191406 102.289062 C 182.191406 78.371094 162.789062 58.914062 138.9375 58.914062 L 103.445312 58.914062 L 103.445312 182.503906 L 142.820312 182.503906 C 170.179688 182.5 192.4375 204.820312 192.4375 232.257812 Z M 192.4375 232.257812 " fill-opacity="1" fill-rule="nonzero"/></svg>